<?xml version="1.0" encoding="UTF-8"?>
<!DOCTYPE svg PUBLIC "-//W3C//DTD SVG 1.1//EN" "http://www.w3.org/Graphics/SVG/1.1/DTD/svg11.dtd">
<svg version="1.2" width="243.99mm" height="197.74mm" viewBox="0 0 24399 19774" preserveAspectRatio="xMidYMid" fill-rule="evenodd" stroke-width="28.222" stroke-linejoin="round" xmlns="http://www.w3.org/2000/svg" xmlns:ooo="http://xml.openoffice.org/svg/export" xmlns:xlink="http://www.w3.org/1999/xlink" xmlns:presentation="http://sun.com/xmlns/staroffice/presentation" xmlns:smil="http://www.w3.org/2001/SMIL20/" xmlns:anim="urn:oasis:names:tc:opendocument:xmlns:animation:1.0" xml:space="preserve">
 <defs class="ClipPathGroup">
  <clipPath id="presentation_clip_path" clipPathUnits="userSpaceOnUse">
   <rect x="0" y="0" width="24399" height="19774"/>
  </clipPath>
  <clipPath id="presentation_clip_path_shrink" clipPathUnits="userSpaceOnUse">
   <rect x="24" y="19" width="24351" height="19735"/>
  </clipPath>
 </defs>
 <defs class="TextShapeIndex">
  <g ooo:slide="id1" ooo:id-list="id3 id4 id5 id6 id7 id8 id9 id10 id11 id12 id13 id14 id15 id16 id17 id18 id19 id20 id21 id22 id23 id24 id25 id26 id27 id28 id29 id30 id31 id32 id33 id34 id35 id36 id37"/>
 </defs>
 <defs class="EmbeddedBulletChars">
  <g id="bullet-char-template-57356" transform="scale(0.00048828125,-0.00048828125)">
   <path d="M 580,1141 L 1163,571 580,0 -4,571 580,1141 Z"/>
  </g>
  <g id="bullet-char-template-57354" transform="scale(0.00048828125,-0.00048828125)">
   <path d="M 8,1128 L 1137,1128 1137,0 8,0 8,1128 Z"/>
  </g>
  <g id="bullet-char-template-10146" transform="scale(0.00048828125,-0.00048828125)">
   <path d="M 174,0 L 602,739 174,1481 1456,739 174,0 Z M 1358,739 L 309,1346 659,739 1358,739 Z"/>
  </g>
  <g id="bullet-char-template-10132" transform="scale(0.00048828125,-0.00048828125)">
   <path d="M 2015,739 L 1276,0 717,0 1260,543 174,543 174,936 1260,936 717,1481 1274,1481 2015,739 Z"/>
  </g>
  <g id="bullet-char-template-10007" transform="scale(0.00048828125,-0.00048828125)">
   <path d="M 0,-2 C -7,14 -16,27 -25,37 L 356,567 C 262,823 215,952 215,954 215,979 228,992 255,992 264,992 276,990 289,987 310,991 331,999 354,1012 L 381,999 492,748 772,1049 836,1024 860,1049 C 881,1039 901,1025 922,1006 886,937 835,863 770,784 769,783 710,716 594,584 L 774,223 C 774,196 753,168 711,139 L 727,119 C 717,90 699,76 672,76 641,76 570,178 457,381 L 164,-76 C 142,-110 111,-127 72,-127 30,-127 9,-110 8,-76 1,-67 -2,-52 -2,-32 -2,-23 -1,-13 0,-2 Z"/>
  </g>
  <g id="bullet-char-template-10004" transform="scale(0.00048828125,-0.00048828125)">
   <path d="M 285,-33 C 182,-33 111,30 74,156 52,228 41,333 41,471 41,549 55,616 82,672 116,743 169,778 240,778 293,778 328,747 346,684 L 369,508 C 377,444 397,411 428,410 L 1163,1116 C 1174,1127 1196,1133 1229,1133 1271,1133 1292,1118 1292,1087 L 1292,965 C 1292,929 1282,901 1262,881 L 442,47 C 390,-6 338,-33 285,-33 Z"/>
  </g>
  <g id="bullet-char-template-9679" transform="scale(0.00048828125,-0.00048828125)">
   <path d="M 813,0 C 632,0 489,54 383,161 276,268 223,411 223,592 223,773 276,916 383,1023 489,1130 632,1184 813,1184 992,1184 1136,1130 1245,1023 1353,916 1407,772 1407,592 1407,412 1353,268 1245,161 1136,54 992,0 813,0 Z"/>
  </g>
  <g id="bullet-char-template-8226" transform="scale(0.00048828125,-0.00048828125)">
   <path d="M 346,457 C 273,457 209,483 155,535 101,586 74,649 74,723 74,796 101,859 155,911 209,963 273,989 346,989 419,989 480,963 531,910 582,859 608,796 608,723 608,648 583,586 532,535 482,483 420,457 346,457 Z"/>
  </g>
  <g id="bullet-char-template-8211" transform="scale(0.00048828125,-0.00048828125)">
   <path d="M -4,459 L 1135,459 1135,606 -4,606 -4,459 Z"/>
  </g>
  <g id="bullet-char-template-61548" transform="scale(0.00048828125,-0.00048828125)">
   <path d="M 173,740 C 173,903 231,1043 346,1159 462,1274 601,1332 765,1332 928,1332 1067,1274 1183,1159 1299,1043 1357,903 1357,740 1357,577 1299,437 1183,322 1067,206 928,148 765,148 601,148 462,206 346,322 231,437 173,577 173,740 Z"/>
  </g>
 </defs>
 <g>
  <g id="id2" class="Master_Slide">
   <g id="bg-id2" class="Background"/>
   <g id="bo-id2" class="BackgroundObjects"/>
  </g>
 </g>
 <g class="SlideGroup">
  <g>
   <g id="container-id1">
    <g id="id1" class="Slide" clip-path="url(#presentation_clip_path)">
     <g class="Page">
      <g class="com.sun.star.drawing.PolyPolygonShape">
       <g id="id3">
        <rect class="BoundingBox" stroke="none" fill="none" x="13227" y="4067" width="135" height="134"/>
        <path fill="rgb(157,113,249)" stroke="none" d="M 13360,4166 L 13306,4131 13340,4077 13325,4068 13291,4122 13237,4087 13227,4102 13282,4137 13247,4191 13262,4200 13296,4146 13350,4180 13360,4166 Z"/>
       </g>
      </g>
      <g class="com.sun.star.drawing.PolyPolygonShape">
       <g id="id4">
        <rect class="BoundingBox" stroke="none" fill="none" x="17249" y="7982" width="134" height="135"/>
        <path fill="rgb(157,113,249)" stroke="none" d="M 17381,8081 L 17327,8047 17362,7993 17347,7983 17312,8037 17258,8003 17249,8018 17303,8052 17269,8106 17283,8116 17318,8062 17372,8096 17381,8081 Z"/>
       </g>
      </g>
      <g class="com.sun.star.drawing.PolyPolygonShape">
       <g id="id5">
        <rect class="BoundingBox" stroke="none" fill="none" x="10741" y="7506" width="134" height="134"/>
        <path fill="rgb(157,113,249)" stroke="none" d="M 10874,7605 L 10820,7571 10854,7517 10839,7507 10805,7561 10751,7527 10742,7542 10796,7576 10761,7630 10776,7639 10810,7585 10864,7620 10874,7605 Z"/>
       </g>
      </g>
      <g class="com.sun.star.drawing.PolyPolygonShape">
       <g id="id6">
        <rect class="BoundingBox" stroke="none" fill="none" x="15609" y="10046" width="134" height="134"/>
        <path fill="rgb(157,113,249)" stroke="none" d="M 15741,10144 L 15687,10109 15721,10055 15706,10046 15672,10100 15618,10066 15609,10080 15663,10115 15628,10169 15643,10178 15677,10124 15731,10159 15741,10144 Z"/>
       </g>
      </g>
      <g class="com.sun.star.drawing.PolyPolygonShape">
       <g id="id7">
        <rect class="BoundingBox" stroke="none" fill="none" x="11084" y="9067" width="135" height="134"/>
        <path fill="rgb(157,113,249)" stroke="none" d="M 11218,9166 L 11164,9132 11198,9077 11183,9068 11149,9122 11095,9088 11085,9103 11140,9137 11105,9191 11120,9200 11154,9146 11208,9181 11218,9166 Z"/>
       </g>
      </g>
      <g class="com.sun.star.drawing.PolyPolygonShape">
       <g id="id8">
        <rect class="BoundingBox" stroke="none" fill="none" x="21985" y="7771" width="134" height="134"/>
        <path fill="rgb(157,113,249)" stroke="none" d="M 22117,7870 L 22063,7835 22097,7781 22083,7772 22048,7826 21994,7791 21985,7806 22039,7841 22004,7895 22019,7904 22053,7850 22108,7884 22117,7870 Z"/>
       </g>
      </g>
      <g class="com.sun.star.drawing.PolyPolygonShape">
       <g id="id9">
        <rect class="BoundingBox" stroke="none" fill="none" x="9973" y="4569" width="135" height="135"/>
        <path fill="rgb(157,113,249)" stroke="none" d="M 10107,4668 L 10052,4634 10087,4580 10072,4570 10038,4624 9984,4590 9974,4605 10028,4639 9994,4693 10009,4703 10043,4649 10097,4683 10107,4668 Z"/>
       </g>
      </g>
      <g class="com.sun.star.drawing.PolyPolygonShape">
       <g id="id10">
        <rect class="BoundingBox" stroke="none" fill="none" x="14444" y="5125" width="188" height="187"/>
        <path fill="rgb(255,255,255)" stroke="none" d="M 14630,5263 L 14554,5215 14602,5139 14581,5126 14533,5202 14458,5154 14444,5174 14520,5222 14472,5298 14493,5311 14541,5235 14617,5284 14630,5263 Z"/>
       </g>
      </g>
      <g class="com.sun.star.drawing.ClosedBezierShape">
       <g id="id11">
        <rect class="BoundingBox" stroke="none" fill="none" x="11825" y="6104" width="161" height="161"/>
        <path fill="rgb(157,113,249)" stroke="none" d="M 11985,6184 C 11985,6198 11981,6212 11974,6224 11967,6236 11957,6246 11945,6253 11933,6260 11920,6264 11906,6264 11892,6264 11878,6260 11866,6253 11854,6246 11844,6236 11837,6224 11830,6212 11826,6198 11826,6184 11826,6170 11830,6157 11837,6145 11844,6133 11854,6122 11866,6116 11878,6109 11892,6105 11906,6105 11920,6105 11933,6109 11945,6116 11957,6122 11967,6133 11974,6145 11981,6157 11985,6170 11985,6184 Z"/>
       </g>
      </g>
      <g class="com.sun.star.drawing.ClosedBezierShape">
       <g id="id12">
        <rect class="BoundingBox" stroke="none" fill="none" x="8730" y="6104" width="161" height="161"/>
        <path fill="rgb(157,113,249)" stroke="none" d="M 8890,6184 C 8890,6198 8886,6212 8879,6224 8872,6236 8862,6246 8850,6253 8838,6260 8824,6264 8810,6264 8796,6264 8783,6260 8771,6253 8758,6246 8748,6236 8741,6224 8734,6212 8731,6198 8731,6184 8731,6170 8734,6157 8741,6145 8748,6133 8758,6122 8771,6116 8783,6109 8796,6105 8810,6105 8824,6105 8838,6109 8850,6116 8862,6122 8872,6133 8879,6145 8886,6157 8890,6170 8890,6184 Z"/>
       </g>
      </g>
      <g class="com.sun.star.drawing.ClosedBezierShape">
       <g id="id13">
        <rect class="BoundingBox" stroke="none" fill="none" x="14127" y="3194" width="161" height="160"/>
        <path fill="rgb(157,113,249)" stroke="none" d="M 14286,3274 C 14286,3288 14282,3302 14275,3314 14268,3326 14258,3336 14246,3343 14234,3350 14220,3353 14206,3353 14192,3353 14179,3350 14167,3343 14155,3336 14145,3326 14138,3314 14131,3302 14127,3288 14127,3274 14127,3260 14131,3246 14138,3234 14145,3222 14155,3212 14167,3205 14179,3198 14192,3195 14206,3195 14220,3195 14234,3198 14246,3205 14258,3212 14268,3222 14275,3234 14282,3246 14286,3260 14286,3274 Z"/>
       </g>
      </g>
      <g class="com.sun.star.drawing.ClosedBezierShape">
       <g id="id14">
        <rect class="BoundingBox" stroke="none" fill="none" x="13386" y="8035" width="161" height="161"/>
        <path fill="rgb(157,113,249)" stroke="none" d="M 13545,8116 C 13545,8130 13541,8143 13534,8155 13527,8167 13517,8177 13505,8184 13493,8191 13480,8195 13466,8195 13452,8195 13438,8191 13426,8184 13414,8177 13404,8167 13397,8155 13390,8143 13386,8130 13386,8116 13386,8102 13390,8088 13397,8076 13404,8064 13414,8054 13426,8047 13438,8040 13452,8036 13466,8036 13480,8036 13493,8040 13505,8047 13517,8054 13527,8064 13534,8076 13541,8088 13545,8102 13545,8116 Z"/>
       </g>
      </g>
      <g class="com.sun.star.drawing.ClosedBezierShape">
       <g id="id15">
        <rect class="BoundingBox" stroke="none" fill="none" x="13360" y="6395" width="108" height="108"/>
        <path fill="rgb(157,113,249)" stroke="none" d="M 13466,6449 C 13466,6458 13463,6467 13458,6475 13454,6483 13447,6490 13439,6495 13431,6499 13423,6502 13413,6502 13404,6502 13394,6499 13386,6495 13378,6490 13372,6483 13367,6475 13363,6467 13360,6458 13360,6449 13360,6440 13362,6430 13367,6422 13371,6414 13378,6408 13386,6403 13394,6398 13403,6396 13413,6396 13422,6396 13431,6398 13439,6403 13447,6408 13454,6414 13458,6422 13463,6430 13466,6440 13466,6449 Z"/>
       </g>
      </g>
      <g class="com.sun.star.drawing.ClosedBezierShape">
       <g id="id16">
        <rect class="BoundingBox" stroke="none" fill="none" x="18783" y="8723" width="108" height="108"/>
        <path fill="rgb(255,101,132)" stroke="none" d="M 18889,8777 C 18889,8786 18887,8795 18882,8804 18877,8812 18871,8818 18863,8823 18855,8828 18846,8830 18836,8830 18827,8830 18818,8828 18810,8823 18802,8818 18795,8812 18790,8804 18786,8795 18783,8786 18783,8777 18783,8768 18786,8759 18790,8751 18795,8743 18802,8735 18810,8731 18818,8726 18827,8724 18836,8724 18846,8724 18855,8726 18863,8731 18871,8735 18877,8743 18882,8751 18887,8759 18889,8768 18889,8777 Z"/>
       </g>
      </g>
      <g class="com.sun.star.drawing.ClosedBezierShape">
       <g id="id17">
        <rect class="BoundingBox" stroke="none" fill="none" x="10688" y="5839" width="107" height="108"/>
        <path fill="rgb(255,101,132)" stroke="none" d="M 10794,5893 C 10794,5903 10791,5912 10787,5920 10782,5928 10776,5934 10768,5939 10760,5944 10751,5946 10742,5946 10732,5946 10723,5944 10715,5939 10707,5934 10700,5928 10696,5920 10691,5912 10689,5903 10689,5893 10689,5884 10691,5875 10696,5867 10700,5859 10707,5851 10715,5847 10723,5842 10732,5840 10742,5840 10751,5840 10760,5842 10768,5847 10776,5851 10783,5859 10787,5867 10792,5875 10794,5884 10794,5893 Z"/>
       </g>
      </g>
      <g class="com.sun.star.drawing.ClosedBezierShape">
       <g id="id18">
        <rect class="BoundingBox" stroke="none" fill="none" x="13995" y="1553" width="108" height="108"/>
        <path fill="rgb(255,101,132)" stroke="none" d="M 14101,1607 C 14101,1616 14098,1626 14093,1634 14089,1642 14082,1648 14074,1653 14066,1658 14058,1660 14048,1660 14039,1660 14029,1658 14021,1653 14013,1648 14007,1642 14002,1634 13998,1626 13995,1616 13995,1607 13995,1598 13997,1589 14002,1581 14006,1573 14013,1565 14021,1561 14029,1556 14038,1554 14048,1554 14057,1554 14066,1556 14074,1561 14082,1565 14089,1573 14093,1581 14098,1589 14101,1598 14101,1607 Z"/>
       </g>
      </g>
      <g class="com.sun.star.drawing.ClosedBezierShape">
       <g id="id19">
        <rect class="BoundingBox" stroke="none" fill="none" x="11825" y="4014" width="108" height="108"/>
        <path fill="rgb(157,113,249)" stroke="none" d="M 11932,4068 C 11932,4077 11930,4086 11925,4094 11920,4102 11914,4109 11906,4114 11898,4118 11888,4121 11879,4121 11870,4121 11861,4118 11853,4114 11845,4109 11837,4102 11833,4094 11828,4086 11826,4077 11826,4068 11826,4058 11829,4049 11833,4041 11838,4033 11845,4027 11853,4022 11861,4017 11870,4015 11879,4015 11888,4015 11898,4017 11906,4022 11914,4027 11920,4033 11925,4041 11930,4049 11932,4058 11932,4068 Z"/>
       </g>
      </g>
      <g class="com.sun.star.drawing.ClosedBezierShape">
       <g id="id20">
        <rect class="BoundingBox" stroke="none" fill="none" x="12487" y="2241" width="108" height="108"/>
        <path fill="rgb(255,255,255)" stroke="none" d="M 12593,2295 C 12593,2304 12590,2313 12585,2322 12581,2330 12574,2336 12566,2341 12558,2346 12550,2348 12540,2348 12531,2348 12521,2346 12513,2341 12505,2336 12499,2330 12494,2322 12490,2313 12487,2304 12487,2295 12487,2286 12489,2277 12494,2269 12498,2261 12505,2253 12513,2249 12521,2244 12530,2242 12540,2242 12549,2242 12558,2244 12566,2249 12574,2253 12581,2261 12585,2269 12590,2277 12593,2286 12593,2295 Z"/>
       </g>
      </g>
      <g class="com.sun.star.drawing.ClosedBezierShape">
       <g id="id21">
        <rect class="BoundingBox" stroke="none" fill="none" x="20371" y="6977" width="161" height="161"/>
        <path fill="rgb(157,113,249)" stroke="none" d="M 20530,7057 C 20530,7071 20526,7085 20519,7097 20512,7109 20502,7119 20490,7126 20478,7133 20464,7137 20450,7137 20436,7137 20423,7133 20410,7126 20398,7119 20388,7109 20381,7097 20374,7085 20371,7071 20371,7057 20371,7043 20374,7030 20381,7018 20388,7006 20398,6996 20410,6989 20423,6982 20436,6978 20450,6978 20464,6978 20478,6982 20490,6989 20502,6996 20512,7006 20519,7018 20526,7030 20530,7043 20530,7057 Z"/>
       </g>
      </g>
      <g class="com.sun.star.drawing.ClosedBezierShape">
       <g id="id22">
        <rect class="BoundingBox" stroke="none" fill="none" x="15106" y="7268" width="161" height="161"/>
        <path fill="rgb(157,113,249)" stroke="none" d="M 15265,7348 C 15265,7362 15261,7376 15254,7388 15247,7400 15237,7410 15225,7417 15213,7424 15199,7428 15185,7428 15171,7428 15158,7424 15146,7417 15134,7410 15124,7400 15117,7388 15111,7376 15106,7362 15106,7348 15106,7334 15110,7321 15117,7309 15123,7297 15134,7287 15146,7280 15158,7273 15171,7269 15185,7269 15199,7269 15213,7273 15225,7280 15237,7287 15247,7297 15254,7309 15261,7321 15265,7334 15265,7348 Z"/>
       </g>
      </g>
      <g class="com.sun.star.drawing.ClosedBezierShape">
       <g id="id23">
        <rect class="BoundingBox" stroke="none" fill="none" x="13571" y="8961" width="532" height="531"/>
        <path fill="rgb(157,113,249)" stroke="none" d="M 14101,9227 C 14101,9273 14088,9319 14065,9359 14042,9399 14008,9433 13968,9456 13928,9479 13882,9491 13836,9491 13790,9491 13745,9479 13704,9456 13664,9433 13630,9399 13607,9359 13584,9319 13571,9273 13571,9227 13571,9180 13584,9135 13607,9095 13630,9054 13664,9021 13704,8998 13745,8975 13790,8962 13836,8962 13882,8962 13928,8975 13968,8998 14008,9021 14042,9054 14065,9095 14088,9135 14101,9180 14101,9227 Z"/>
       </g>
      </g>
      <g class="com.sun.star.drawing.ClosedBezierShape">
       <g id="id24">
        <rect class="BoundingBox" stroke="none" fill="none" x="16958" y="6263" width="161" height="160"/>
        <path fill="rgb(255,255,255)" stroke="none" d="M 17117,6343 C 17117,6357 17113,6371 17106,6383 17099,6395 17089,6405 17077,6412 17065,6419 17051,6422 17037,6422 17023,6422 17011,6419 16998,6412 16986,6405 16976,6395 16969,6383 16963,6371 16958,6357 16958,6343 16958,6329 16962,6315 16969,6303 16975,6291 16986,6281 16998,6274 17011,6267 17023,6264 17037,6264 17051,6264 17065,6267 17077,6274 17089,6281 17099,6291 17106,6303 17113,6315 17117,6329 17117,6343 Z"/>
       </g>
      </g>
      <g class="com.sun.star.drawing.ClosedBezierShape">
       <g id="id25">
        <rect class="BoundingBox" stroke="none" fill="none" x="2362" y="19064" width="1512" height="701"/>
        <path fill="rgb(47,46,65)" stroke="none" d="M 2432,19064 C 2432,19064 2284,19684 2419,19711 2553,19738 3212,19729 3374,19756 3535,19783 3873,19738 3873,19616 3873,19495 3523,19414 3523,19414 3523,19414 3024,19146 3011,19132 2998,19119 2432,19064 2432,19064 Z"/>
       </g>
      </g>
      <g class="com.sun.star.drawing.ClosedBezierShape">
       <g id="id26">
        <rect class="BoundingBox" stroke="none" fill="none" x="2404" y="14562" width="1089" height="4628"/>
        <path fill="rgb(47,46,65)" stroke="none" d="M 2591,14643 C 2591,14643 2639,15190 2639,15238 2639,15287 2349,17830 2414,18345 2478,18860 2408,19025 2408,19121 2408,19218 2929,19182 2929,19182 L 3492,15625 3202,14562 2591,14643 Z"/>
       </g>
      </g>
      <g class="com.sun.star.drawing.ClosedBezierShape">
       <g id="id27">
        <rect class="BoundingBox" stroke="none" fill="none" x="2561" y="19131" width="1514" height="594"/>
        <path fill="rgb(47,46,65)" stroke="none" d="M 2621,19200 C 2621,19200 2486,19686 2621,19712 2755,19739 3414,19681 3576,19708 3737,19735 4074,19738 4074,19617 4074,19496 3724,19415 3724,19415 3724,19415 3226,19147 3213,19133 3199,19120 2621,19200 2621,19200 Z"/>
       </g>
      </g>
      <g class="com.sun.star.drawing.ClosedBezierShape">
       <g id="id28">
        <rect class="BoundingBox" stroke="none" fill="none" x="2368" y="13999" width="1663" height="5491"/>
        <path fill="rgb(47,46,65)" stroke="none" d="M 2446,13999 C 2446,13999 2253,14466 2478,14707 2703,14949 2961,15432 2961,15464 2961,15496 2510,18699 2575,18908 2639,19117 2623,19246 2607,19278 2591,19310 2768,19488 2961,19488 3154,19488 3444,19343 3476,19214 3508,19085 3428,17975 3444,17765 3460,17556 4103,14209 4023,14128 3942,14048 2446,13999 2446,13999 Z"/>
       </g>
      </g>
      <g class="com.sun.star.drawing.ClosedBezierShape">
       <g id="id29">
        <rect class="BoundingBox" stroke="none" fill="none" x="3121" y="9203" width="1096" height="1096"/>
        <path fill="rgb(159,97,106)" stroke="none" d="M 4216,9751 C 4216,9847 4191,9941 4143,10024 4095,10108 4026,10176 3943,10224 3859,10272 3765,10297 3669,10297 3573,10297 3478,10272 3395,10224 3311,10176 3243,10108 3195,10024 3147,9941 3122,9847 3122,9751 3122,9655 3147,9561 3195,9477 3243,9394 3311,9325 3395,9277 3478,9229 3573,9204 3669,9204 3765,9204 3859,9229 3943,9277 4026,9325 4095,9394 4143,9477 4191,9561 4216,9655 4216,9751 Z"/>
       </g>
      </g>
      <g class="com.sun.star.drawing.ClosedBezierShape">
       <g id="id30">
        <rect class="BoundingBox" stroke="none" fill="none" x="3330" y="9949" width="743" height="897"/>
        <path fill="rgb(159,97,106)" stroke="none" d="M 3331,10024 C 3331,10024 3443,10619 3363,10683 3282,10748 3975,10844 3975,10844 3975,10844 4055,10056 4071,9975 4087,9895 3331,10024 3331,10024 Z"/>
       </g>
      </g>
      <g class="com.sun.star.drawing.ClosedBezierShape">
       <g id="id31">
        <rect class="BoundingBox" stroke="none" fill="none" x="2356" y="10361" width="1939" height="3882"/>
        <path fill="rgb(157,113,249)" stroke="none" d="M 4071,10796 C 4071,10796 4175,10229 3387,10390 3387,10390 2667,10981 2699,11528 2731,12076 2446,13662 2478,13774 2510,13887 2284,14032 2381,14080 2477,14129 4216,14418 4265,14080 4313,13742 4248,12889 4281,12728 4313,12568 4281,11215 4184,11054 4087,10893 4071,10796 4071,10796 Z"/>
       </g>
      </g>
      <g class="com.sun.star.drawing.ClosedBezierShape">
       <g id="id32">
        <rect class="BoundingBox" stroke="none" fill="none" x="3642" y="14691" width="447" height="952"/>
        <path fill="rgb(159,97,106)" stroke="none" d="M 3733,14723 C 3733,14723 3492,15641 3798,15641 4104,15641 4087,14691 4087,14691 L 3733,14723 Z"/>
       </g>
      </g>
      <g class="com.sun.star.drawing.ClosedBezierShape">
       <g id="id33">
        <rect class="BoundingBox" stroke="none" fill="none" x="2690" y="9032" width="1204" height="1332"/>
        <path fill="rgb(47,46,65)" stroke="none" d="M 3709,9898 L 3709,9898 C 3665,9893 3621,9887 3578,9876 3512,9860 3476,9917 3452,9998 3413,10130 3410,10324 3376,10349 3136,10481 2430,9596 2792,9367 2921,9285 3355,8979 3655,9041 3955,9102 3834,9475 3834,9475 3834,9475 3845,9524 3857,9587 3875,9666 3887,9746 3893,9827 3893,9832 3893,9837 3892,9842 3885,9887 3814,9907 3709,9898 Z"/>
       </g>
      </g>
      <g class="com.sun.star.drawing.ClosedBezierShape">
       <g id="id34">
        <rect class="BoundingBox" stroke="none" fill="none" x="3296" y="10957" width="866" height="3897"/>
        <path fill="rgb(157,113,249)" stroke="none" d="M 3927,10957 C 3927,10957 3379,10926 3331,11730 3283,12535 3299,13291 3299,13307 3299,13323 3523,14852 3733,14852 3942,14852 4104,14820 4152,14739 4200,14659 4023,13500 4023,13500 4023,13500 3942,12278 4071,11891 4199,11505 4216,11005 3927,10957 Z"/>
       </g>
      </g>
      <g class="com.sun.star.drawing.PolyPolygonShape">
       <g id="id35">
        <rect class="BoundingBox" stroke="none" fill="none" x="3147" y="11924" width="532" height="2939"/>
        <path fill="rgb(0,0,0)" fill-opacity="0.102" stroke="rgb(255,255,255)" stroke-opacity="0.102" d="M 3307,11951 L 3148,13671 3678,14861 3334,13644 3307,11924 3307,11951 Z"/>
       </g>
      </g>
      <g class="com.sun.star.drawing.PolyPolygonShape">
       <g id="id36">
        <rect class="BoundingBox" stroke="none" fill="none" x="3968" y="12136" width="148" height="2030"/>
        <path fill="rgb(0,0,0)" fill-opacity="0.102" stroke="rgb(255,255,255)" stroke-opacity="0.102" d="M 4074,12136 L 4115,14164 3969,13062 4074,12136 Z"/>
       </g>
      </g>
      <g class="com.sun.star.drawing.PolyPolygonShape">
       <g id="id37">
        <rect class="BoundingBox" stroke="none" fill="none" x="0" y="19716" width="6830" height="58"/>
        <path fill="rgb(63,61,86)" stroke="none" d="M 6819,19772 L 0,19772 0,19716 6829,19716 6819,19772 Z"/>
       </g>
      </g>
     </g>
    </g>
   </g>
  </g>
 </g>
</svg>