<?xml version="1.0" encoding="UTF-8" standalone="no"?>
<!DOCTYPE svg PUBLIC "-//W3C//DTD SVG 1.1//EN" "http://www.w3.org/Graphics/SVG/1.1/DTD/svg11.dtd">
<svg version="1.1" xmlns="http://www.w3.org/2000/svg" xmlns:xlink="http://www.w3.org/1999/xlink" preserveAspectRatio="xMidYMid meet" viewBox="0 0 258 405.74" width="258" height="405.74"><defs><path d="M91.38 403.42C91.38 403.42 121.38 404.11 127.48 405.13C127.48 405.13 146.3 404.44 146.3 399.86C146.3 395.28 133.08 392.23 133.08 392.23C133.08 392.23 114.26 382.06 113.75 381.55C113.24 381.04 91.88 379.01 91.88 379.01C91.78 383.89 86.29 402.4 91.38 403.42Z" id="d1g3NiN8FI"/><path d="M97.87 211.97C97.87 211.97 99.7 232.64 99.7 234.47C99.7 234.47 88.75 332.36 91.19 351.82C91.19 351.82 90.96 377.49 90.96 381.14C90.96 381.14 110.64 383.44 110.64 383.44C112.06 374.48 119.16 329.69 131.93 249.06L120.98 208.93C108.66 210.55 100.96 211.56 97.87 211.97Z" id="aB907i4Lb"/><path d="M99 403.46C99 403.46 129.01 402.29 135.11 403.31C135.11 403.31 153.93 404.47 153.93 399.9C153.93 399.9 140.71 392.27 140.71 392.27C140.71 392.27 121.89 382.1 121.38 381.59C120.87 381.08 99 384.13 99 384.13C99 388 93.92 402.44 99 403.46Z" id="a2hXKbSZWc"/><path d="M93.62 214.4C93.62 214.4 111.86 241.76 111.86 242.98C111.86 242.98 94.83 365.2 97.27 373.1C97.27 373.1 99.09 385.87 98.48 387.09C98.48 387.09 104.56 394.99 111.86 394.99C111.86 394.99 130.1 389.52 131.32 384.65C131.32 384.65 129.49 337.83 130.1 329.93C130.71 322.03 155.03 195.55 151.99 192.51C148.95 189.47 92.4 187.64 92.4 187.64C92.65 193 85.11 205.28 93.62 214.4Z" id="axwMoUnKW"/><path d="M138.61 6.44C127.2 6.44 117.94 15.7 117.94 27.12C117.94 38.54 127.2 47.79 138.61 47.79C150.03 47.79 159.29 38.54 159.29 27.12C159.29 15.7 150.03 6.44 138.61 6.44Z" id="e4qJFfdYGb"/><path d="M127.06 62.39C127.06 62.39 150.17 68.47 150.17 68.47C150.17 68.47 153.21 38.67 153.82 35.63C154.42 32.59 125.84 37.46 125.84 37.46C126.09 42.44 130.1 59.95 127.06 62.39Z" id="a45FNuRfK5"/><path d="M127.94 51.3C127.94 51.3 100.74 73.6 101.96 94.28C103.17 114.95 92.4 174.88 93.62 179.13C94.83 183.39 86.32 188.86 89.97 190.69C93.62 192.51 159.29 203.45 161.11 190.69C162.94 177.92 160.5 145.69 161.72 139.61C162.94 133.53 161.72 82.45 158.07 76.37C154.42 70.29 153.82 66.64 153.82 66.64C148.64 63.57 157.74 45.22 127.94 51.3Z" id="bsJgUT9Se"/><path d="M141.05 215.01C141.05 215.01 131.93 249.67 143.48 249.67C143.48 249.67 154.42 213.79 154.42 213.79C151.75 214.03 143.72 214.76 141.05 215.01Z" id="a1uzIen2rj"/><path d="M140.13 32.7C140.13 32.7 140.12 32.7 140.12 32.7C138.45 32.54 136.79 32.26 135.16 31.85C132.69 31.24 131.3 33.43 130.41 36.47C128.94 41.48 128.82 48.8 127.53 49.76C118.49 54.75 91.8 21.27 105.48 12.6C110.35 9.51 126.75 -2.02 138.08 0.31C149.42 2.64 144.83 16.7 144.83 16.7C144.83 16.7 145.25 18.55 145.72 20.92C146.39 23.91 146.84 26.94 147.07 30C147.07 30.19 147.06 30.38 147.04 30.57C146.77 32.31 144.08 33.04 140.13 32.7Z" id="er8o9iOAp"/><path d="M125.84 101.91C125.84 101.91 124.63 160.89 124.63 161.5C124.63 161.5 133.14 219.87 141.05 219.87C141.05 219.87 155.03 218.66 156.86 215.62C156.86 215.62 151.99 168.8 151.99 168.8C151.99 168.8 148.95 122.58 153.82 107.99C158.68 93.4 159.29 74.55 148.34 72.72C143.84 78.56 127.67 71.51 125.84 101.91Z" id="h3otI8osS"/><path d="M124.94 110.27L118.95 175.24L138.94 220.22L125.94 174.24L124.94 109.27" id="b36xMEBeM1"/><path d="M155.46 193.86L149.93 152.25L153.93 117.27L153.93 117.27L155.46 193.86Z" id="b1xFa5tjA0"/><path d="M0 405.74L0 403.64L258 403.64L257.62 405.74L257.62 405.74L0 405.74Z" id="gftQ83iEJ"/></defs><g><g><g><g><use xlink:href="#d1g3NiN8FI" opacity="1" fill="#2f2e41" fill-opacity="1"/><g><use xlink:href="#d1g3NiN8FI" opacity="1" fill-opacity="0" stroke="#000000" stroke-width="1" stroke-opacity="0"/></g></g><g><use xlink:href="#aB907i4Lb" opacity="1" fill="#2f2e41" fill-opacity="1"/><g><use xlink:href="#aB907i4Lb" opacity="1" fill-opacity="0" stroke="#000000" stroke-width="1" stroke-opacity="0"/></g></g><g><use xlink:href="#a2hXKbSZWc" opacity="1" fill="#2f2e41" fill-opacity="1"/><g><use xlink:href="#a2hXKbSZWc" opacity="1" fill-opacity="0" stroke="#000000" stroke-width="1" stroke-opacity="0"/></g></g><g><use xlink:href="#axwMoUnKW" opacity="1" fill="#2f2e41" fill-opacity="1"/><g><use xlink:href="#axwMoUnKW" opacity="1" fill-opacity="0" stroke="#000000" stroke-width="1" stroke-opacity="0"/></g></g><g><use xlink:href="#e4qJFfdYGb" opacity="1" fill="#9f616a" fill-opacity="1"/><g><use xlink:href="#e4qJFfdYGb" opacity="1" fill-opacity="0" stroke="#000000" stroke-width="1" stroke-opacity="0"/></g></g><g><use xlink:href="#a45FNuRfK5" opacity="1" fill="#9f616a" fill-opacity="1"/><g><use xlink:href="#a45FNuRfK5" opacity="1" fill-opacity="0" stroke="#000000" stroke-width="1" stroke-opacity="0"/></g></g><g><use xlink:href="#bsJgUT9Se" opacity="1" fill="#9d71f9" fill-opacity="1"/><g><use xlink:href="#bsJgUT9Se" opacity="1" fill-opacity="0" stroke="#000000" stroke-width="1" stroke-opacity="0"/></g></g><g><use xlink:href="#a1uzIen2rj" opacity="1" fill="#9f616a" fill-opacity="1"/><g><use xlink:href="#a1uzIen2rj" opacity="1" fill-opacity="0" stroke="#000000" stroke-width="1" stroke-opacity="0"/></g></g><g><use xlink:href="#er8o9iOAp" opacity="1" fill="#2f2e41" fill-opacity="1"/><g><use xlink:href="#er8o9iOAp" opacity="1" fill-opacity="0" stroke="#000000" stroke-width="1" stroke-opacity="0"/></g></g><g><use xlink:href="#h3otI8osS" opacity="1" fill="#9d71f9" fill-opacity="1"/><g><use xlink:href="#h3otI8osS" opacity="1" fill-opacity="0" stroke="#000000" stroke-width="1" stroke-opacity="0"/></g></g><g><use xlink:href="#b36xMEBeM1" opacity="1" fill="#000000" fill-opacity="1"/><g><use xlink:href="#b36xMEBeM1" opacity="1" fill-opacity="0" stroke="#000000" stroke-width="1" stroke-opacity="0"/></g></g><g><use xlink:href="#b1xFa5tjA0" opacity="1" fill="#000000" fill-opacity="1"/><g><use xlink:href="#b1xFa5tjA0" opacity="1" fill-opacity="0" stroke="#000000" stroke-width="1" stroke-opacity="0"/></g></g><g><use xlink:href="#gftQ83iEJ" opacity="1" fill="#3f3d56" fill-opacity="1"/><g><use xlink:href="#gftQ83iEJ" opacity="1" fill-opacity="0" stroke="#000000" stroke-width="1" stroke-opacity="0"/></g></g></g></g></g></svg>