<?xml version="1.0" encoding="UTF-8"?>
<svg width="24399" height="19774" xmlns="http://www.w3.org/2000/svg" xmlns:svg="http://www.w3.org/2000/svg" fill-rule="evenodd" preserveAspectRatio="xMidYMid" stroke-linejoin="round" stroke-width="28.222" version="1.2">
 <defs>
  <clipPath clipPathUnits="userSpaceOnUse" id="presentation_clip_path">
   <rect height="19774" id="svg_1" width="24399" x="14.285714" y="0"/>
  </clipPath>
  <clipPath clipPathUnits="userSpaceOnUse" id="presentation_clip_path_shrink">
   <rect height="19735" id="svg_2" width="24351" x="24" y="19"/>
  </clipPath>
 </defs>
 <defs>
  <g id="svg_3"/>
 </defs>
 <defs>
  <g id="bullet-char-template-57356" transform="scale(0.00048828125,-0.00048828125)">
   <path d="m580,1141l583,-570l-583,-571l-584,571l584,570z" id="svg_4"/>
  </g>
  <g id="bullet-char-template-57354" transform="scale(0.00048828125,-0.00048828125)">
   <path d="m8,1128l1129,0l0,-1128l-1129,0l0,1128z" id="svg_5"/>
  </g>
  <g id="bullet-char-template-10146" transform="scale(0.00048828125,-0.00048828125)">
   <path d="m174,0l428,739l-428,742l1282,-742l-1282,-739zm1184,739l-1049,607l350,-607l699,0z" id="svg_6"/>
  </g>
  <g id="bullet-char-template-10132" transform="scale(0.00048828125,-0.00048828125)">
   <path d="m2015,739l-739,-739l-559,0l543,543l-1086,0l0,393l1086,0l-543,545l557,0l741,-742z" id="svg_7"/>
  </g>
  <g id="bullet-char-template-10007" transform="scale(0.00048828125,-0.00048828125)">
   <path d="m0,-2c-7,16 -16,29 -25,39l381,530c-94,256 -141,385 -141,387c0,25 13,38 40,38c9,0 21,-2 34,-5c21,4 42,12 65,25l27,-13l111,-251l280,301l64,-25l24,25c21,-10 41,-24 62,-43c-36,-69 -87,-143 -152,-222c-1,-1 -60,-68 -176,-200l180,-361c0,-27 -21,-55 -63,-84l16,-20c-10,-29 -28,-43 -55,-43c-31,0 -102,102 -215,305l-293,-457c-22,-34 -53,-51 -92,-51c-42,0 -63,17 -64,51c-7,9 -10,24 -10,44c0,9 1,19 2,30z" id="svg_8"/>
  </g>
  <g id="bullet-char-template-10004" transform="scale(0.00048828125,-0.00048828125)">
   <path d="m285,-33c-103,0 -174,63 -211,189c-22,72 -33,177 -33,315c0,78 14,145 41,201c34,71 87,106 158,106c53,0 88,-31 106,-94l23,-176c8,-64 28,-97 59,-98l735,706c11,11 33,17 66,17c42,0 63,-15 63,-46l0,-122c0,-36 -10,-64 -30,-84l-820,-834c-52,-53 -104,-80 -157,-80z" id="svg_9"/>
  </g>
  <g id="bullet-char-template-9679" transform="scale(0.00048828125,-0.00048828125)">
   <path d="m813,0c-181,0 -324,54 -430,161c-107,107 -160,250 -160,431c0,181 53,324 160,431c106,107 249,161 430,161c179,0 323,-54 432,-161c108,-107 162,-251 162,-431c0,-180 -54,-324 -162,-431c-109,-107 -253,-161 -432,-161z" id="svg_10"/>
  </g>
  <g id="bullet-char-template-8226" transform="scale(0.00048828125,-0.00048828125)">
   <path d="m346,457c-73,0 -137,26 -191,78c-54,51 -81,114 -81,188c0,73 27,136 81,188c54,52 118,78 191,78c73,0 134,-26 185,-79c51,-51 77,-114 77,-187c0,-75 -25,-137 -76,-188c-50,-52 -112,-78 -186,-78z" id="svg_11"/>
  </g>
  <g id="bullet-char-template-8211" transform="scale(0.00048828125,-0.00048828125)">
   <path d="m-4,459l1139,0l0,147l-1139,0l0,-147z" id="svg_12"/>
  </g>
  <g id="bullet-char-template-61548" transform="scale(0.00048828125,-0.00048828125)">
   <path d="m173,740c0,163 58,303 173,419c116,115 255,173 419,173c163,0 302,-58 418,-173c116,-116 174,-256 174,-419c0,-163 -58,-303 -174,-418c-116,-116 -255,-174 -418,-174c-164,0 -303,58 -419,174c-115,115 -173,255 -173,418z" id="svg_13"/>
  </g>
 </defs>
 <g class="layer">
  <title>Layer 1</title>
  <g id="svg_14">
   <g class="Master_Slide" id="id2">
    <g class="Background" id="bg-id2"/>
    <g class="BackgroundObjects" id="bo-id2"/>
   </g>
  </g>
  <g class="SlideGroup" id="svg_15">
   <g id="svg_16">
    <g id="container-id1">
     <g class="Slide" clip-path="url(#presentation_clip_path)" id="id1">
      <g class="Page" id="svg_17">
       <g class="com.sun.star.drawing.ClosedBezierShape" id="svg_84">
        <g id="id25">
         <rect class="BoundingBox" fill="none" height="701" id="svg_85" width="1512" x="2376.285714" y="19049.714286"/>
         <path d="m2446.285714,19049.714286c0,0 -148,620 -13,647c134,27 793,18 955,45c161,27 499,-18 499,-140c0,-121 -350,-202 -350,-202c0,0 -499,-268 -512,-282c-13,-13 -579,-68 -579,-68z" fill="rgb(47,46,65)" id="svg_86"/>
        </g>
       </g>
       <g class="com.sun.star.drawing.ClosedBezierShape" id="svg_87">
        <g id="id26">
         <rect class="BoundingBox" fill="none" height="4628" id="svg_88" width="1089" x="2418.285714" y="14547.714286"/>
         <path d="m2605.285714,14628.714286c0,0 48,547 48,595c0,49 -290,2592 -225,3107c64,515 -6,680 -6,776c0,97 521,61 521,61l563,-3557l-290,-1063l-611,81z" fill="rgb(47,46,65)" id="svg_89"/>
        </g>
       </g>
       <g class="com.sun.star.drawing.ClosedBezierShape" id="svg_90">
        <g id="id27">
         <rect class="BoundingBox" fill="none" height="594" id="svg_91" width="1514" x="2575.285714" y="19116.714286"/>
         <path d="m2635.285714,19185.714286c0,0 -135,486 0,512c134,27 793,-31 955,-4c161,27 498,30 498,-91c0,-121 -350,-202 -350,-202c0,0 -498,-268 -511,-282c-14,-13 -592,67 -592,67z" fill="rgb(47,46,65)" id="svg_92"/>
        </g>
       </g>
       <g class="com.sun.star.drawing.ClosedBezierShape" id="svg_93">
        <g id="id28">
         <rect class="BoundingBox" fill="none" height="5491" id="svg_94" width="1663" x="2382.285714" y="13984.714286"/>
         <path d="m2460.285714,13984.714286c0,0 -193,467 32,708c225,242 483,725 483,757c0,32 -451,3235 -386,3444c64,209 48,338 32,370c-16,32 161,210 354,210c193,0 483,-145 515,-274c32,-129 -48,-1239 -32,-1449c16,-209 659,-3556 579,-3637c-81,-80 -1577,-129 -1577,-129z" fill="rgb(47,46,65)" id="svg_95"/>
        </g>
       </g>
       <g class="com.sun.star.drawing.ClosedBezierShape" id="svg_96">
        <g id="id29">
         <rect class="BoundingBox" fill="none" height="1096" id="svg_97" width="1096" x="3135.285714" y="9188.714286"/>
         <path d="m4230.285714,9736.714286c0,96 -25,190 -73,273c-48,84 -117,152 -200,200c-84,48 -178,73 -274,73c-96,0 -191,-25 -274,-73c-84,-48 -152,-116 -200,-200c-48,-83 -73,-177 -73,-273c0,-96 25,-190 73,-274c48,-83 116,-152 200,-200c83,-48 178,-73 274,-73c96,0 190,25 274,73c83,48 152,117 200,200c48,84 73,178 73,274z" fill="rgb(159,97,106)" id="svg_98"/>
        </g>
       </g>
       <g class="com.sun.star.drawing.ClosedBezierShape" id="svg_99">
        <g id="id30">
         <rect class="BoundingBox" fill="none" height="897" id="svg_100" width="743" x="3344.285714" y="9934.714286"/>
         <path d="m3345.285714,10009.714286c0,0 112,595 32,659c-81,65 612,161 612,161c0,0 80,-788 96,-869c16,-80 -740,49 -740,49z" fill="rgb(159,97,106)" id="svg_101"/>
        </g>
       </g>
       <g class="com.sun.star.drawing.ClosedBezierShape" id="svg_102">
        <g id="id31">
         <rect class="BoundingBox" fill="none" height="3882" id="svg_103" width="1939" x="2370.285714" y="10346.714286"/>
         <path d="m4085.285714,10781.714286c0,0 104,-567 -684,-406c0,0 -720,591 -688,1138c32,548 -253,2134 -221,2246c32,113 -194,258 -97,306c96,49 1835,338 1884,0c48,-338 -17,-1191 16,-1352c32,-160 0,-1513 -97,-1674c-97,-161 -113,-258 -113,-258z" fill="rgb(157,113,249)" id="svg_104"/>
        </g>
       </g>
       <g class="com.sun.star.drawing.ClosedBezierShape" id="svg_105">
        <g id="id32">
         <rect class="BoundingBox" fill="none" height="952" id="svg_106" width="447" x="3656.285714" y="14676.714286"/>
         <path d="m3747.285714,14708.714286c0,0 -241,918 65,918c306,0 289,-950 289,-950l-354,32z" fill="rgb(159,97,106)" id="svg_107"/>
        </g>
       </g>
       <g class="com.sun.star.drawing.ClosedBezierShape" id="svg_108">
        <g id="id33">
         <rect class="BoundingBox" fill="none" height="1332" id="svg_109" width="1204" x="2704.285714" y="9017.714286"/>
         <path d="m3723.285714,9883.714286l0,0c-44,-5 -88,-11 -131,-22c-66,-16 -102,41 -126,122c-39,132 -42,326 -76,351c-240,132 -946,-753 -584,-982c129,-82 563,-388 863,-326c300,61 179,434 179,434c0,0 11,49 23,112c18,79 30,159 36,240c0,5 0,10 -1,15c-7,45 -78,65 -183,56z" fill="rgb(47,46,65)" id="svg_110"/>
        </g>
       </g>
       <g class="com.sun.star.drawing.ClosedBezierShape" id="svg_111">
        <g id="id34">
         <rect class="BoundingBox" fill="none" height="3897" id="svg_112" width="866" x="3310.285714" y="10942.714286"/>
         <path d="m3941.285714,10942.714286c0,0 -548,-31 -596,773c-48,805 -32,1561 -32,1577c0,16 224,1545 434,1545c209,0 371,-32 419,-113c48,-80 -129,-1239 -129,-1239c0,0 -81,-1222 48,-1609c128,-386 145,-886 -144,-934z" fill="rgb(157,113,249)" id="svg_113"/>
        </g>
       </g>
       <g class="com.sun.star.drawing.PolyPolygonShape" id="svg_114">
        <g id="id35">
         <rect class="BoundingBox" fill="none" height="2939" id="svg_115" width="532" x="3161.285714" y="11909.714286"/>
         <path d="m3321.285714,11936.714286l-159,1720l530,1190l-344,-1217l-27,-1720l0,27z" fill="rgb(0,0,0)" fill-opacity="0.102" id="svg_116" stroke="rgb(255,255,255)" stroke-opacity="0.102"/>
        </g>
       </g>
       <g class="com.sun.star.drawing.PolyPolygonShape" id="svg_117">
        <g id="id36">
         <rect class="BoundingBox" fill="none" height="2030" id="svg_118" width="148" x="3982.285714" y="12121.714286"/>
         <path d="m4088.285714,12121.714286l41,2028l-146,-1102l105,-926z" fill="rgb(0,0,0)" fill-opacity="0.102" id="svg_119" stroke="rgb(255,255,255)" stroke-opacity="0.102"/>
        </g>
       </g>
       <g class="com.sun.star.drawing.PolyPolygonShape" id="svg_120">
        <g id="id37">
         <rect class="BoundingBox" fill="none" height="58" id="svg_121" width="6830" x="14.285714" y="19701.714286"/>
         <path d="m6833.285714,19757.714286l-6819,0l0,-56l6829,0l-10,56z" fill="rgb(63,61,86)" id="svg_122"/>
        </g>
       </g>
      </g>
     </g>
    </g>
   </g>
  </g>
 </g>
</svg>
